<svg width="538" height="768" viewBox="0 0 538 768" fill="none" xmlns="http://www.w3.org/2000/svg">
<path d="M421.184 335.212C470.952 367.228 516.283 414.462 528.012 469.302C540.058 524.144 518.502 586.593 486.486 643.97C454.468 701.347 411.674 753.018 360.32 764.747C308.966 776.159 248.736 746.995 190.724 721.952C132.713 696.592 76.604 675.353 42.0511 633.192C7.8151 591.031 -4.8649 527.63 3.0601 465.498C10.6681 403.05 38.8811 341.869 85.48 309.218C132.396 276.567 197.698 272.446 257.294 279.103C317.208 285.76 371.414 303.195 421.184 335.212Z" fill="#FFDBB4"/>
<path fill-rule="evenodd" clip-rule="evenodd" d="M269.579 375.44L264.114 388.962L267.125 431.821L269.365 432.17C293.028 435.841 309.107 437.696 317.603 437.733L317.866 437.734C326.422 437.734 336.674 435.821 348.622 431.996L349.166 431.821L350.546 399.729H347.293L341.409 385.923L341.414 385.918C341.479 386.029 341.547 386.136 341.617 386.24C344.07 389.871 345.492 386.939 351.255 388.223C358.155 389.761 361.219 396.741 367.294 401.957C370.114 404.379 376.034 405.52 378.867 407.186L381.843 408.936C391.168 414.44 401.885 421.127 407.512 429.837C414.109 440.049 418.656 449.739 422.855 461.099C431.906 485.584 438.188 510.569 442.676 536.264C447.226 562.306 449.96 588.672 452.049 615.017C453.016 627.225 453.836 639.444 454.517 651.671L454.685 654.728C455.042 661.381 454.731 667.891 448.687 671.988C444.357 674.923 438.61 675.37 433.529 675.671L433.253 675.688C395.69 677.892 358.126 680.081 320.562 682.274L264.218 685.571C254.843 686.121 245.467 686.667 236.092 687.209L213.207 688.532C202.422 689.146 191.623 689.678 180.823 689.615C167.235 689.536 153.704 688.531 140.241 686.719L139.054 686.557C130.584 685.386 118.303 682.425 116.781 672.259C116.563 670.799 117.847 669.887 118.924 670.097C118.57 668.442 118.35 666.785 118.139 665.345C117.236 659.194 116.67 653.003 116.39 646.793C115.828 634.366 116.301 621.881 117.542 609.508C119.596 589.038 122.475 568.604 125.449 548.241L126.112 543.717C129.275 522.143 133.042 500.606 138.937 479.591C144.382 460.178 152.876 439.983 164.564 427.708C176.252 415.432 192.917 404.767 210.041 398.235C211.524 397.669 240.987 391.213 242.972 392.153L243.328 391.873C249.202 387.232 257.582 379.079 266.21 381.646L266.229 381.614C266.433 381.24 267.23 378.735 268.331 375.44H269.579Z" fill="#8FA7DF"/>
<path fill-rule="evenodd" clip-rule="evenodd" d="M275.81 357.443C282.946 348.389 290.468 345.51 301.583 346.185C309.121 345.915 316.639 347.874 323.021 352.199C328.869 355.258 334.055 359.467 337.757 364.887C340.923 369.52 338.517 380.969 341.409 385.923C341.381 386.462 341.366 386.953 341.366 387.397C341.366 391.684 344.347 396.467 350.309 401.748L350.546 401.957V433.107C340.523 436.192 328.114 437.734 313.319 437.734C298.744 437.734 283.585 435.285 267.841 430.387L267.125 430.162L264.114 396.307L267.125 386.939L267.124 379.092L268.288 375.582C270.348 369.411 273.502 360.372 275.81 357.443Z" fill="#694D3D"/>
<path fill-rule="evenodd" clip-rule="evenodd" d="M267.125 430.162C284.767 435.304 299.61 437.875 311.654 437.875C323.698 437.875 336.202 435.304 349.166 430.162L346.012 684.049L295.236 684.67L267.125 430.162Z" fill="#9FD8E5"/>
<path fill-rule="evenodd" clip-rule="evenodd" d="M180.01 541.018C179.815 540.651 180.269 540.321 180.57 540.586C187.41 546.593 190.991 556.241 191.742 565.159C192.537 574.615 191.409 584.406 190.978 593.859C190.498 604.388 190.067 614.921 189.482 625.445C188.887 636.122 188.247 646.796 187.698 657.476L186.463 681.5C186.331 684.06 186.616 687.209 185.634 689.598C184.113 693.302 179.593 692.729 178.644 689.633L178.614 689.531L178.527 689.598C177.689 686.808 178.317 683.494 178.459 680.61L179.753 654.362C180.667 635.809 181.482 617.256 182.464 598.707L182.798 592.524C183.257 584.201 183.609 575.898 183.892 567.577L183.984 564.803C184.252 556.448 184.039 548.561 180.01 541.018ZM345.822 387.001C349.633 386.639 352.511 387.904 355.97 389.236C357.477 389.816 358.904 390.486 360.35 391.18C362.16 392.049 363.324 393.584 364.439 395.208L365.035 396.083C369.676 402.889 372.799 410.741 376.322 418.151C380.443 426.819 384.605 435.468 388.638 444.177L390.628 448.468C391.623 450.614 392.615 452.76 393.593 454.914L395.281 458.662C396.978 462.463 398.498 466.485 396.081 470.406C393.832 474.053 389.847 476.875 386.691 479.694C384.058 482.046 381.425 484.398 378.791 486.75C384.236 492.206 387.891 499.077 390.039 506.446C393.092 505.173 396.818 504.929 399.974 504.378C404.392 503.607 404.933 510.301 400.764 510.22C397.684 510.159 394.071 510.474 390.912 509.825C391.461 512.246 391.86 514.704 392.113 517.169C393.441 530.086 390.54 543.079 387.515 555.578L387.266 556.604C383.98 570.131 380.865 583.695 378.078 597.335C375.285 611.004 372.773 624.731 370.543 638.503C368.273 652.521 366.666 666.617 364.94 680.709C364.679 682.842 363.338 684.67 360.983 684.67C359.021 684.67 356.779 682.838 357.025 680.709C358.806 665.363 361.333 650.097 363.843 634.855C368.166 608.608 373.607 582.588 379.866 556.74L380.96 552.238C383.776 540.563 386.331 528.534 384.918 516.492C383.768 506.686 379.671 496.231 371.575 490.14L371.328 489.957C369.437 488.569 368.709 485.914 370.572 484.086C371.757 482.923 372.944 481.761 374.132 480.6L381.259 473.635L382.696 472.229C383.894 471.058 385.098 469.894 386.338 468.767C387.088 468.084 389.123 466.783 389.271 465.661C389.368 464.929 388.502 463.643 388.15 462.968L386.542 459.718C385.628 457.865 384.743 455.999 383.851 454.135C382.003 450.274 380.127 446.425 378.319 442.545L367.456 419.248C364.391 412.676 361.661 405.737 357.654 399.661L356.864 398.476C356.205 397.479 355.622 396.519 355.205 395.299C354.805 394.126 354.302 392.837 353.561 391.836C351.826 389.486 348.509 388.153 345.733 387.66C345.332 387.589 345.478 387.034 345.822 387.001ZM262.269 380.882C262.511 380.882 262.547 381.227 262.325 381.294C258.976 382.302 255.777 383.928 253.166 386.275C251.918 387.398 250.66 388.672 249.889 390.184C249.594 390.763 249.431 391.374 249.311 392.008L249.273 392.22C249.074 393.364 248.789 394.002 248.208 394.918L248.108 395.074C244.791 400.201 242.466 405.896 240.34 411.598L235.711 424.031L231.084 436.466C229.594 440.472 228.102 444.479 226.611 448.486C225.788 450.698 224.941 452.901 224.094 455.104C223.728 456.058 223.334 457.005 222.999 457.971C222.953 458.103 222.806 458.899 222.697 459.092L222.734 459.157C223.667 460.728 226.156 462.041 227.566 463.182L232.423 467.112C235.887 469.915 239.439 472.639 242.798 475.567C244.908 477.405 243.595 480.697 241.242 481.465C237.299 482.75 233.435 484.289 229.551 485.744C227.982 486.331 226.348 486.843 224.797 487.49L223.853 487.899C223.485 488.065 223.662 488.063 223.677 488.744C223.691 489.458 223.894 490.203 224.01 490.905C225.318 498.822 226.705 506.726 228.169 514.616C233.347 542.517 239.533 570.214 246.588 597.698C250.152 611.578 253.974 625.389 257.615 639.249C261.248 653.071 266.028 666.695 270.592 680.232C271.88 684.049 265.832 685.693 264.576 681.892C259.315 665.97 254.503 649.91 249.534 633.898C240.705 605.448 233.747 576.379 227.594 547.241C224.544 532.799 221.755 518.302 219.228 503.76C218.75 501.006 218.281 498.252 217.821 495.495L217.152 491.441C216.693 488.551 216.431 485.541 218.676 483.254C220.867 481.021 224.629 480.23 227.513 479.183L227.723 479.106C229.558 478.421 231.406 477.761 233.247 477.08C230.535 474.943 227.856 472.759 225.151 470.623C222.968 468.9 220.751 467.212 218.6 465.45C216.826 463.996 215.38 462.129 215.195 459.765C215.006 457.349 216.041 455.107 216.875 452.891L216.955 452.677C217.775 450.465 218.596 448.253 219.439 446.049L224.651 432.406C227.964 423.736 231.137 414.996 234.621 406.394C235.999 402.99 237.501 399.639 239.276 396.421C240.132 394.869 241.05 393.351 242.048 391.886C243.165 390.244 244.18 389.443 245.911 388.537C248.68 387.088 250.854 384.659 253.634 383.165C256.363 381.699 259.171 380.916 262.269 380.882ZM271.258 365.415C271.364 365.233 271.645 365.314 271.648 365.521C271.721 369.83 270.698 374.233 270.069 378.493C269.436 382.769 269.234 387.282 268.319 391.512C268.3 391.709 268.262 391.903 268.208 392.094L268.165 392.239C267.779 393.424 266.775 394.428 265.544 394.742C265.931 396.89 266.296 399.041 266.603 401.204C267.13 404.921 267.611 408.644 268.084 412.369L268.65 416.838C269.185 421.05 269.705 425.264 270.219 429.479C271.526 430.026 272.861 430.477 274.227 430.869C277.374 431.77 280.597 432.136 283.845 432.455C290.458 433.104 297.122 433.405 303.759 433.774L305.18 433.854C312.642 434.282 320.144 434.358 327.586 433.592C331.277 433.212 334.938 432.574 338.537 431.671C340.366 431.211 342.143 430.526 343.968 430.077C344.573 429.928 345.114 429.585 345.721 429.218C345.99 428.877 346.368 428.619 346.86 428.52L346.994 428.497L347.126 428.477L347.171 428.457L347.168 428.471C347.541 428.421 347.896 428.421 348.23 428.467C348.364 425.181 348.508 421.895 348.689 418.61C349.174 409.787 350.515 400.583 348.725 391.837C348.665 391.543 349.065 391.439 349.169 391.714C352.681 400.973 352.286 411.098 352.463 420.843C352.636 430.372 352.531 439.909 352.484 449.441C353.166 449.732 353.775 450.125 354.257 450.678C355.219 451.782 355.496 453.702 354.257 454.768C353.707 455.24 353.099 455.568 352.454 455.796C352.42 464.077 352.361 472.358 352.278 480.64C353.852 481.856 353.999 484.744 352.219 485.945C351.923 512.763 351.436 539.581 351.032 566.395L350.186 622.651C350.073 630.147 349.887 637.642 349.82 645.136L349.873 645.157L350.06 645.244C350.375 645.392 350.844 645.632 350.942 645.877C350.967 645.941 350.974 645.985 350.971 646.018C351.487 646.09 351.999 646.335 352.441 646.755C353.534 647.794 353.312 649.36 352.441 650.418L352.209 650.701C351.666 651.36 350.635 651.614 349.794 651.48C349.802 656.158 349.832 660.836 349.817 665.514C349.813 666.942 349.791 668.371 349.766 669.8L349.708 673.226C349.668 675.18 349.495 677.665 347.495 678.543C345.238 679.534 343.214 678.722 342.3 676.428C342.052 675.807 342.106 675.228 342.196 674.613C342.168 673.69 342.023 672.62 342.041 671.764L342.116 668.192C342.127 667.642 342.15 667.091 342.165 666.541L342.1 666.547C334.08 666.937 326.004 666.747 317.971 666.742L314.398 666.747C311.418 666.75 308.43 666.734 305.454 666.62L304.338 666.572C302.109 666.468 299.766 666.434 297.455 666.235C297.75 668.608 298.025 670.983 298.27 673.361C298.502 675.615 296.177 677.531 294.103 677.531C291.64 677.531 290.232 675.593 289.937 673.361C288.545 662.83 287.975 652.201 286.646 641.663C285.455 632.225 284.422 622.765 283.372 613.309L283.021 610.157C279.18 575.745 275.45 541.319 271.883 506.877L270.221 490.777C268.544 474.549 266.856 458.32 265.433 442.068C264.619 432.776 263.869 423.483 263.164 414.182C262.646 407.35 262.321 400.555 262.109 393.735C261.274 392.876 260.856 391.62 261.226 390.324C261.442 389.568 261.693 388.815 261.959 388.064C261.942 387.326 261.925 386.588 261.91 385.849C261.897 385.15 262.606 384.79 263.174 384.906C264.206 382.406 265.342 379.927 266.291 377.451C267.825 373.442 269.09 369.123 271.258 365.415ZM185.543 408.735C201.587 398.672 220.685 391.431 239.814 392.21C240.249 392.228 240.371 392.892 239.919 392.992C229.716 395.272 219.401 398.049 209.742 402.091C200.054 406.145 190.843 411.603 182.638 418.163C167.501 430.266 155.736 446.008 147.989 463.753C143.451 474.148 140.27 485.122 137.492 496.1C134.553 507.719 132.131 519.462 130.117 531.277C126.139 554.613 123.823 578.207 122.59 601.841C121.337 625.883 121.853 649.942 120.959 673.987C120.805 678.153 114.855 678.071 114.552 673.987C112.526 646.649 113.649 618.875 115.523 591.556C117.207 566.998 120.15 542.491 124.888 518.328L125.3 516.233C129.73 493.878 135.072 470.981 145.78 450.735C154.922 433.45 169.035 419.09 185.543 408.735ZM408.342 515.58C408.426 515.34 408.742 515.343 408.826 515.58C410.655 520.704 410.721 526.486 411.207 531.887L411.245 532.302C411.712 537.229 412.063 542.162 412.389 547.098L412.51 548.95C413.821 569.09 415.458 589.207 417.926 609.241C420.385 629.199 423.71 649.018 427.305 668.798C427.706 671.001 426.731 673.244 424.423 673.878C422.389 674.437 419.778 673.184 419.348 670.994C417.116 659.641 415.311 648.272 413.7 636.821C410.866 616.655 408.75 596.397 407.39 576.079C406.708 565.874 406.287 555.673 406.12 545.446C406.043 540.701 406.166 535.945 406.419 531.205L406.479 530.111C406.758 525.266 406.729 520.2 408.342 515.58ZM234.973 643.858C235.188 643.742 235.453 643.981 235.317 644.203C232.211 649.256 228.008 653.613 223.946 657.907C219.699 662.396 215.558 667.02 211.225 671.421C208.095 674.6 203.059 669.472 206.363 666.555C211.008 662.454 215.863 658.558 220.591 654.549L222.658 652.795C226.535 649.517 230.526 646.269 234.973 643.858ZM382.53 641.328C382.298 640.885 382.828 640.527 383.188 640.82C385.694 642.859 387.94 645.292 390.36 647.444C392.756 649.576 395.242 651.565 397.796 653.504C400.36 655.451 402.98 657.321 405.671 659.09C407.903 660.557 410.203 661.732 412.541 662.951C413.623 663.09 414.626 663.622 415.428 664.63C416.696 666.224 416.831 669.23 415.072 670.614L414.756 670.862C412.703 672.477 410.265 672.674 408.244 670.862C405.987 668.84 403.854 666.614 401.686 664.476L401.035 663.838C398.706 661.572 396.434 659.233 394.291 656.789L392.352 654.581C388.754 650.475 385.009 646.049 382.53 641.328ZM370.987 404.598C370.57 404.321 370.827 403.577 371.342 403.755L372.286 404.081C376.229 405.453 380.287 406.974 383.867 409.085C387.715 411.354 391.267 414.057 394.661 416.956C401.686 422.958 407.663 430.338 412.742 438.031C422.933 453.467 429.236 471.146 434.324 488.834C439.75 507.694 443.928 526.961 447.339 546.281C450.804 565.916 453.478 585.728 455.235 605.591C456.101 615.375 456.682 625.165 456.974 634.983C457.125 640.034 457.12 645.081 457.078 650.134C457.067 651.433 457.076 652.732 457.091 654.03L457.14 657.927C457.166 660.391 457.461 662.98 456.876 665.387C455.934 669.261 449.534 668.538 449.744 664.578C449.551 663.261 449.543 661.899 449.593 660.535C449.563 660.359 449.53 660.18 449.493 659.997C449.388 659.474 449.478 658.989 449.683 658.572C449.716 657.918 449.746 657.267 449.757 656.628C449.799 654.027 449.796 651.436 449.724 648.835C449.573 643.351 449.355 637.868 449.135 632.387C448.695 621.434 448.083 610.476 447.196 599.551C444.109 561.52 437.592 523.272 426.644 486.684C421.559 469.693 414.55 453.014 404.497 438.332C400.035 431.814 395 425.793 389.419 420.206C383.802 414.583 377.613 408.989 370.987 404.598ZM295.236 649.762L295.994 655.254C296.374 658 296.749 660.747 297.106 663.497C299.527 663.165 302.004 663.026 304.338 662.819C308.423 662.457 312.536 662.281 316.633 662.112C325.105 661.762 333.619 661.156 342.1 661.198C342.187 661.199 342.269 661.204 342.352 661.211L342.772 650.375L336.814 650.366C331.765 650.358 326.718 650.315 321.669 650.271C317.123 650.232 312.574 650.226 308.028 650.131L306.08 650.085C302.633 649.992 298.826 650.184 295.236 649.762ZM343.272 634.033C343.029 634.062 342.782 634.086 342.519 634.097C341.339 634.147 340.149 634.112 338.968 634.122C336.453 634.144 333.939 634.161 331.424 634.16C326.394 634.16 321.365 634.19 316.336 634.251C311.159 634.314 305.986 634.404 300.808 634.414C298.3 634.418 295.799 634.352 293.291 634.282C293.697 637.848 294.121 641.412 294.589 644.967C298.483 644.441 302.671 644.706 306.477 644.67L306.971 644.663C312.166 644.575 317.365 644.64 322.561 644.646C327.906 644.653 333.25 644.67 338.596 644.714L342.987 644.75L342.995 644.529C343.124 641.034 343.207 637.534 343.272 634.033ZM291.36 616.971C291.846 621.181 292.303 625.398 292.769 629.613C293.079 629.566 293.392 629.524 293.712 629.491C296.224 629.228 298.731 629.003 301.252 628.846C306.277 628.535 311.302 628.37 316.336 628.235C321.512 628.096 326.689 627.99 331.867 627.916C334.383 627.881 336.896 627.885 339.412 627.902C340.592 627.91 341.784 627.873 342.962 627.952C343.103 627.962 343.237 627.976 343.37 627.992L343.459 621.662C343.474 620.607 343.49 619.553 343.507 618.498C339.619 618.738 335.666 618.647 331.781 618.648L330.885 618.65C326.004 618.672 321.12 618.605 316.239 618.504C311.204 618.399 306.179 618.234 301.152 617.911C299.116 617.781 297.094 617.607 295.069 617.384L294.056 617.268C293.174 617.164 292.267 617.08 291.36 616.971ZM343.908 599.109C334.544 599.853 325.23 600.164 315.842 600.256L314.433 600.268C306.136 600.331 297.771 600.674 289.455 600.454C289.952 604.768 290.448 609.083 290.948 613.397C292.139 613.341 293.335 613.341 294.499 613.299C296.867 613.213 299.227 613.192 301.596 613.186C306.477 613.175 311.358 613.218 316.239 613.208C321.27 613.197 326.299 613.112 331.329 613.017C335.407 612.941 339.528 612.634 343.617 612.645L343.908 599.109ZM344.304 580.702C343.219 581.063 341.938 581.086 340.534 581.15L336.909 581.331C335.229 581.414 333.548 581.491 331.867 581.552C326.265 581.758 320.664 581.949 315.061 582.128C309.32 582.31 303.551 582.416 297.809 582.235C294.996 582.146 292.207 581.999 289.403 581.764C288.709 581.706 288.003 581.668 287.295 581.618C287.947 587.334 288.603 593.05 289.26 598.765C297.537 597.749 305.877 597.116 314.143 596.064L321.618 595.109C329.089 594.155 336.554 593.219 344.052 592.429L344.304 580.702ZM344.703 562.092C343.111 562.485 341.296 562.466 339.768 562.562L339.484 562.582C336.588 562.802 333.683 562.912 330.78 562.983C325.089 563.124 319.395 563.194 313.702 563.229L310.279 563.25C305.716 563.277 301.155 563.288 296.591 563.182C293.663 563.114 290.741 562.97 287.816 562.824C286.939 562.779 286.043 562.75 285.144 562.705C285.756 568.117 286.374 573.528 286.99 578.939C287.951 578.786 288.917 578.67 289.838 578.514C292.196 578.116 294.549 577.797 296.924 577.512C302.068 576.896 307.239 576.452 312.407 576.077C317.713 575.692 323.023 575.367 328.329 574.994L332.088 574.729C333.34 574.642 334.593 574.558 335.847 574.481C337.987 574.35 340.475 574.498 342.598 574.032C343.173 573.792 343.811 573.737 344.451 573.874L344.703 562.092ZM345.185 540.308C344.634 541.008 343.811 541.375 342.83 541.502C337.721 542.166 332.48 542.272 327.327 542.585L326.419 542.642C321.098 542.993 315.775 543.269 310.45 543.552C304.981 543.842 299.512 544.079 294.038 544.27C291.714 544.351 289.378 544.36 287.051 544.331L286.054 544.316C285.098 544.299 284.097 544.302 283.094 544.269C283.649 549.33 284.21 554.39 284.778 559.449C285.801 559.337 286.824 559.253 287.816 559.147C290.74 558.838 293.66 558.532 296.591 558.301C302.144 557.863 307.701 557.6 313.264 557.324C318.956 557.042 324.651 556.855 330.344 556.589C333.104 556.459 335.864 556.299 338.616 556.045C340.544 555.867 342.835 555.21 344.848 555.452C344.958 550.404 345.072 545.356 345.185 540.308ZM345.634 520.794C345.547 520.929 345.445 521.06 345.321 521.181C343.072 523.406 340.299 523.234 337.318 523.468L337.135 523.482C334.214 523.728 331.291 523.962 328.366 524.173C322.519 524.596 316.661 524.891 310.806 525.154C304.814 525.424 298.783 525.61 292.785 525.487C288.944 525.408 284.921 525.422 281.003 525.048C281.605 530.621 282.21 536.194 282.82 541.766C283.921 541.559 285.03 541.399 286.08 541.234C288.727 540.817 291.376 540.399 294.038 540.092C299.357 539.479 304.677 538.906 310.007 538.389C314.564 537.946 319.12 537.497 323.681 537.093L326.419 536.856C331.86 536.398 337.371 535.643 342.83 535.531C343.73 535.513 344.748 536.003 345.263 536.776C345.384 531.448 345.509 526.121 345.634 520.794ZM346.012 504.997C344.622 505.166 343.125 505.07 341.842 505.112C338.6 505.218 335.357 505.316 332.114 505.412L312.656 505.987C306.032 506.182 299.384 506.329 292.756 506.235C289.841 506.194 286.913 506.189 283.999 506.03L283.028 505.971C281.828 505.891 280.356 505.88 278.919 505.734L280.616 521.464C284.515 520.901 288.533 520.69 292.398 520.359L293.224 520.286C298.926 519.767 304.655 519.423 310.366 519.036C316.225 518.639 322.076 518.157 327.927 517.664C330.851 517.418 333.775 517.172 336.698 516.903L337.059 516.868C339.819 516.579 342.415 515.965 344.859 517.594C345.217 517.832 345.497 518.15 345.689 518.507C345.796 514.004 345.9 509.5 346.012 504.997ZM346.465 486.639C334.615 487.116 322.763 487.478 310.904 487.637C304.229 487.727 297.563 487.664 290.888 487.524C287.994 487.463 285.076 487.325 282.184 487.103L281.101 487.016C279.726 486.9 278.282 486.816 276.843 486.677C277.438 492.086 278.027 497.495 278.613 502.905C280.027 502.642 281.506 502.521 282.746 502.362L283.028 502.325C286.108 501.9 289.218 501.653 292.314 501.381C298.342 500.849 304.401 500.507 310.445 500.216C316.635 499.917 322.828 499.665 329.018 499.389L335.209 499.112C336.241 499.066 337.273 499.021 338.305 498.978C339.779 498.915 341.253 498.856 342.727 498.795C343.454 498.765 344.21 498.666 344.938 498.704L345.146 498.676C345.241 498.664 345.325 498.654 345.403 498.645C345.601 498.495 345.814 498.369 346.04 498.275L346.177 498.221L346.465 486.639ZM274.9 469.241C275.451 474.11 275.995 478.98 276.532 483.851C278.222 483.658 279.932 483.551 281.546 483.405C284.8 483.114 288.069 482.858 291.333 482.708L297.856 482.404C302.205 482.203 306.553 482.009 310.904 481.85C322.814 481.415 334.723 480.916 346.625 480.308C346.709 477.005 346.796 473.701 346.884 470.398C346.313 471.01 345.487 471.413 344.403 471.411C331.907 471.377 319.402 471.449 306.908 471.244C300.654 471.141 294.407 470.989 288.16 470.668C285.104 470.511 282.03 470.191 278.997 469.77C277.703 469.591 276.288 469.463 274.9 469.241ZM272.9 451.891C273.488 456.879 274.064 461.868 274.631 466.858C276.183 466.581 277.786 466.433 279.234 466.236C282.344 465.813 285.474 465.475 288.607 465.298C294.703 464.953 300.803 464.779 306.908 464.65C319.401 464.384 331.907 464.386 344.403 464.287C345.577 464.278 346.448 464.743 347.02 465.437C347.107 462.322 347.199 459.207 347.293 456.092C346.086 455.965 344.889 455.784 343.782 455.707C340.379 455.469 336.974 455.252 333.568 455.056C326.461 454.648 319.346 454.3 312.234 453.99C305.12 453.68 298.003 453.378 290.887 453.114L287.774 453C282.825 452.816 277.792 452.583 272.9 451.891ZM270.663 433.107C271.274 438.159 271.876 443.211 272.477 448.264L272.66 449.828C278.612 448.67 284.884 448.33 290.887 448.075C298.004 447.772 305.11 447.616 312.234 447.638C319.351 447.659 326.457 447.828 333.568 448.122C337.121 448.269 340.674 448.439 344.225 448.632C345.202 448.685 346.347 448.656 347.525 448.673C347.551 447.879 347.572 447.085 347.6 446.292C347.708 443.076 347.814 439.86 347.924 436.644C345.522 437.879 342.399 438.377 339.985 438.903L339.71 438.964C335.724 439.86 331.655 440.44 327.586 440.795C319.597 441.493 311.524 441.232 303.543 440.557L302.145 440.437C295.135 439.829 287.869 439.058 281.074 437.322C277.838 436.495 274.492 435.338 271.591 433.661C271.29 433.487 270.978 433.302 270.663 433.107ZM338.15 373.079C338.22 372.806 338.628 372.744 338.763 372.999C339.707 374.793 340.058 376.947 340.713 378.87C341.418 380.937 342.076 383.02 342.854 385.062C344.48 389.328 346.397 393.428 348.684 397.381C350.948 401.294 344.608 404.088 342.942 399.803C341.222 395.382 339.808 390.81 338.953 386.138C338.535 383.859 338.163 381.548 338.042 379.232C337.938 377.242 337.659 375.02 338.15 373.079Z" fill="black"/>
<path fill-rule="evenodd" clip-rule="evenodd" d="M375.234 245.541C359.552 204.163 331.285 173.868 283.63 192.896C282.263 191.963 280.479 191.713 278.77 192.806C252.81 209.154 234.117 235.364 226.015 264.919C221.085 265.86 216.294 267.499 212.015 270.188C202.715 276.033 196.459 285.332 190.593 294.39C188.83 297.113 190.463 301.621 193.777 302.239C195.217 302.508 196.644 302.668 198.063 302.71C197.717 303.968 197.263 305.183 196.684 306.297C194.587 310.332 198.548 314.615 202.259 313.512C202.671 313.731 203.103 313.91 203.55 314.045C203.601 316.331 204.772 319.39 207.089 319.852C210.837 320.658 215.817 317.781 214.933 313.577C216.065 313.777 217.193 313.802 218.293 313.663C218.416 315.853 218.378 318.137 218.679 320.156C219.664 329.673 229.145 336.066 238.186 333.171C238.741 336.136 239.392 340.303 242.304 341.911C245.709 351.49 251.587 362.422 261.216 366.787C260.359 368.989 260.824 371.669 263.406 373.143C281.031 383.221 302.185 386.631 322.112 382.884C330.075 382.409 337.834 380.604 345.281 376.759C350.712 373.955 355.705 370.394 360.579 366.723C365.455 363.051 370.669 359.476 374.561 354.708C378.788 349.53 380.756 343.437 382.033 336.953C387.885 307.519 385.864 278.619 375.234 250.58C362.075 215.873 388.388 280.25 375.234 245.541Z" fill="#694D3D"/>
<path fill-rule="evenodd" clip-rule="evenodd" d="M211.969 268.496C226.607 259.836 245.274 262.078 254.068 275.492C255.586 277.807 256.634 280.355 257.375 283.304L257.494 283.794L257.614 284.31C257.997 286.015 258.248 287.619 258.589 290.347L258.967 293.442L259.075 294.286C259.441 297.087 259.762 298.857 260.263 300.661L260.362 301.011L260.941 303.009L258.757 303.818C254.574 305.333 253.698 305.469 251.284 304.203C249.399 303.215 248.415 301.884 247.105 299.188L246.916 298.793L246.498 297.914L246.271 297.45C245.418 295.742 244.735 293.92 243.769 293.258C242.458 292.359 238.326 292.002 235.452 292.356L235.302 292.375L235.178 292.401L234.965 292.449C230.132 293.595 225.727 297.508 222.821 301.643C220.482 304.972 219.138 309.166 218.973 313.525L218.963 313.815L218.906 316.04L214.221 315.94L214.267 315.074L214.197 315.228C212.721 318.349 209.012 320.427 205.91 318.361L205.799 318.286L205.687 318.205C203.067 316.271 202.752 312.357 204.902 309.979L205.001 309.872L205.098 309.774L205.078 309.765L205.056 309.757L205.042 309.756C204.31 309.891 203.666 310.267 202.796 311.069L202.572 311.279L202.123 311.767L201.658 312.265L201.458 312.471C201.33 312.6 201.213 312.714 201.103 312.814C200.954 312.95 200.816 313.064 200.667 313.168C200.528 313.264 200.385 313.348 200.212 313.424C199.785 313.61 199.329 313.698 198.745 313.554C197.944 313.357 197.493 312.871 197.22 312.299C197.114 312.077 197.053 311.872 197.01 311.657C196.965 311.431 196.943 311.201 196.931 310.936C196.924 310.762 196.921 310.572 196.922 310.365L196.928 310.041L196.939 309.689L196.951 309.408L197.004 308.365C197.193 304.942 198.09 301.58 199.626 298.406L199.782 298.09L199.84 297.975L199.679 298.191C198.632 299.575 197.621 300.535 196.358 301.168L196.185 301.253L196.015 301.33C194.263 302.102 192.499 301.802 191.434 300.372C190.697 299.382 190.479 298.079 190.63 296.709C190.923 294.05 191.972 291.616 194.024 288.064L194.312 287.57L195.439 285.653C199.781 278.324 205.362 272.404 211.969 268.496Z" fill="#E8E1E1"/>
<path fill-rule="evenodd" clip-rule="evenodd" d="M299.422 184.833C307.447 184.265 315.619 185.622 323.262 188.049C335.451 191.919 346.645 198.748 355.842 207.638C365.32 216.801 372.331 228.097 376.593 240.574C381.733 255.621 382.503 271.687 383.95 287.395C384.68 295.33 385.885 303.145 387.137 311.004L387.335 312.246C388.558 319.903 389.246 327.647 387.557 335.292C384.747 347.998 376.327 358.784 366.331 366.754C345.797 383.126 313.831 393.107 289.923 378.042C286.225 375.711 289.73 369.75 293.34 372.179C295.882 373.889 298.574 375.388 301.461 376.423C313.523 380.746 326.771 379.206 338.693 375.185C350.441 371.222 361.714 364.525 370.383 355.589C379.489 346.204 384.535 334.61 383.806 321.418C383.371 313.57 381.588 305.866 380.599 298.081C379.722 291.186 379.196 284.253 378.591 277.33L378.369 274.84C377.084 260.735 375.24 246.244 368.841 233.44C363.459 222.669 355.578 213.087 346.101 205.686C336.18 197.938 324.33 192.519 311.897 190.498C297.275 188.122 283.279 192.443 271.083 200.489C260.265 207.624 250.966 217.158 243.835 227.977C240.377 233.223 237.431 238.825 234.887 244.57C232.49 249.983 230.837 255.656 228.909 261.235C230.495 261.188 232.108 261.249 233.746 261.431C242.145 262.364 249.971 266.73 254.953 273.614C261.041 282.026 259.396 292.352 261.774 301.919C261.958 302.662 261.645 303.389 261.011 303.8C257.405 306.137 252.58 306.215 249.09 303.583C246.061 301.299 244.639 297.169 245.865 293.561C246.025 293.091 246.708 293.174 246.727 293.678C246.958 299.819 252.638 304.547 258.206 301.625C255.817 293.376 257.074 284.162 252.19 276.711C243.544 263.523 225.652 262.978 213.085 270.412C206.471 274.324 201.236 280.207 197.338 286.786L196.215 288.696C194.721 291.248 193.139 294.135 192.829 296.946C192.65 298.568 193.247 300.092 195.102 299.275C196.603 298.614 197.765 297.072 198.656 295.746C200.177 293.486 203.671 295.439 202.415 297.846L202.372 297.925C200.544 301.172 199.419 304.751 199.213 308.48L199.16 309.512C199.126 310.265 199.101 311.335 199.26 311.374C199.45 311.421 200.772 309.889 200.993 309.677C202.053 308.655 203.146 307.82 204.623 307.548C206.564 307.191 208.523 309.6 206.837 311.179L206.767 311.243C205.263 312.554 205.33 315.169 206.991 316.395C209.336 318.126 212.222 315.301 212.563 312.975L212.574 312.89C212.875 310.377 216.355 310.288 216.544 312.89C216.954 318.536 210.252 323.268 205.152 320.42C203.136 319.294 201.854 317.233 201.452 315.023C200.808 315.364 200.114 315.601 199.38 315.666C196.99 315.879 195.291 314.193 194.904 311.931C194.454 309.296 194.721 306.474 195.413 303.737C194.115 304.051 192.75 303.931 191.378 303.137C187.225 300.734 188.418 295.389 189.986 291.78C196.678 276.377 210.544 262.401 227.723 261.291C227.817 258.574 228.184 256.005 228.785 253.283C234.661 226.666 253.696 202.019 278.476 190.5C285.098 187.421 292.121 185.35 299.422 184.833ZM234.436 291.159L234.671 291.105C237.349 290.527 244.394 289.847 243.545 294.366C243.505 294.578 243.197 294.552 243.142 294.366C242.31 291.525 236.66 293.797 235.011 294.481C232.736 295.423 230.493 296.813 228.636 298.429C224.57 301.968 221.845 306.956 221.431 312.372C221.02 317.745 222.574 323.549 226.439 327.436C228.333 329.341 230.751 330.634 233.467 330.729C235.908 330.814 238.604 328.909 240.856 330.025C241.3 330.245 241.652 330.848 241.611 331.346C241.536 332.287 241.116 333.019 240.491 333.588C244.261 340.478 247.346 347.771 252.155 354.037C254.569 357.181 257.303 360.092 260.4 362.57C261.872 363.748 263.472 364.782 265.122 365.691C267.056 366.757 268.729 367.424 270.109 369.23C271.286 370.77 270.108 373.748 268.169 374.014C263.6 374.638 259.161 370.934 255.807 368.159C252.456 365.386 249.56 361.966 247.167 358.337C242.572 351.369 239.428 343.149 238.171 334.832C236.711 335.296 235.068 335.438 233.832 335.441C230.544 335.448 227.404 334.262 224.819 332.257C215.358 324.917 214.306 309.849 220.983 300.346C224.178 295.799 229.033 292.439 234.436 291.159ZM234.495 308.636C236.689 308.443 238.881 308.79 240.943 309.54L241.793 309.849C243.589 310.508 245.5 311.282 246.797 312.632C248.778 314.696 246.806 318.271 243.983 317.48C240.863 316.606 238.326 313.97 235.207 312.864C232.418 311.876 229.26 312.016 226.785 313.718C226.458 313.943 226.028 313.499 226.242 313.173C228.135 310.282 231.124 308.932 234.495 308.636Z" fill="black"/>
<path fill-rule="evenodd" clip-rule="evenodd" d="M343.043 341.778C343.729 340.586 345.306 339.481 346.75 339.65C353.217 340.409 353.206 348.257 350.709 352.838C348.495 356.901 343.912 359.285 339.326 358.937C334.507 358.571 330.402 355.736 328.595 351.225C327.4 348.24 326.848 342.731 330.027 340.726C330.086 340.689 330.183 340.698 330.23 340.752C331.754 342.527 331.814 345.191 333.148 347.166C334.389 349.004 336.317 350.521 338.575 350.755C340.262 350.93 341.968 350.322 342.628 348.806C342.985 347.986 342.944 347.541 342.81 346.977L342.688 346.487C342.266 344.769 342.076 343.462 343.043 341.778ZM344.772 307.362C348.145 309.414 353.285 314.198 349.656 319.286C345.385 323.771 339.235 318.628 336.205 316.302C333.395 314.5 330.238 319.136 332.845 321.241C354.743 337.467 363.629 307.898 346.478 304.949C344.59 304.624 343.888 306.727 344.772 307.362ZM309.153 293.291C311.223 290.182 315.949 290.64 317.089 294.329C317.707 296.327 316.854 298.123 316.898 300.119C316.935 301.805 316.825 303.683 316.309 305.316C315.131 309.039 311.785 311.669 307.827 311.56C303.882 311.451 300.408 308.952 298.755 305.432C297.097 301.899 297.448 298.243 298.659 294.65C298.717 294.478 298.943 294.394 299.079 294.539C300.51 296.061 301.557 297.668 302.641 299.372L303.752 301.119C304.601 302.434 305.835 304.114 307.42 304.009L307.657 303.985C308.098 303.947 308.03 304.035 308.37 303.434C308.527 303.156 308.499 302.639 308.575 302.311L308.601 302.2L308.587 302.14C308.553 301.981 308.52 301.682 308.493 301.162L308.487 301.048C308.372 298.617 307.686 295.493 309.153 293.291ZM361.634 295.36C361.263 291.384 366.848 290.501 368.705 293.443C369.673 294.978 369.955 296.905 370.169 298.731L370.27 299.598C370.489 301.473 370.576 303.424 369.763 305.173C368.482 307.928 365.696 309.385 362.691 309.154C359.821 308.933 357.202 307.268 355.822 304.74C354.592 302.484 353.368 298.08 354.863 295.727C354.953 295.584 355.133 295.566 355.257 295.676C356.669 296.931 356.9 299.22 357.739 300.855C358.605 302.541 359.919 304.184 361.91 304.44C363.815 304.685 364.542 303.644 364.056 301.827C363.43 299.481 361.87 297.885 361.634 295.36ZM310.661 269.652L311.575 269.302C314.704 268.119 319.001 266.751 321.545 269.298C323.115 270.868 323.414 273.182 322.293 275.098C320.936 277.42 318.501 277.477 316.15 277.819C313.475 278.208 310.756 278.948 308.266 280.002C305.461 281.19 302.858 282.67 300.308 284.324C297.884 285.895 295.469 288.464 292.568 288.948C292.45 288.967 292.315 288.916 292.284 288.786C291.626 285.948 293.457 283.154 295.09 280.939C297.067 278.258 299.463 276.057 302.14 274.084C304.724 272.179 307.677 270.802 310.661 269.652ZM367.509 279.745L367.788 279.696C369.686 279.38 371.406 279.453 372.836 280.957C373.927 282.104 374.348 283.592 373.828 285.109C373.348 286.509 372.274 287.931 370.715 288.224C365.454 289.215 359.626 289.051 354.338 288.301C351.919 287.958 349.478 287.538 347.121 286.875L346.037 286.56C344.07 285.998 341.818 285.41 340.389 283.962C339.875 283.442 340.171 282.697 340.786 282.456C343.279 281.479 346.697 281.999 349.356 281.923C352.448 281.834 355.546 281.602 358.624 281.282C361.632 280.969 364.543 280.289 367.509 279.745Z" fill="black"/>
<path fill-rule="evenodd" clip-rule="evenodd" d="M396.641 273.325C396.273 273.263 395.905 273.206 395.537 273.152C395.25 272.989 394.913 272.863 394.52 272.787C393.625 272.56 392.735 272.406 391.847 272.324C379.103 269.453 349.619 273.529 348.402 284.414C344.343 285.77 340.832 284.556 336.128 284.676C332.547 269.698 270.645 271.812 267.668 280.842C267.657 280.839 267.645 280.837 267.634 280.833C264.773 279.947 260.556 280.161 257.282 280.02C250.291 279.874 243.292 280.497 236.452 281.973C223.643 284.01 206.163 286.395 215.071 302.403C215.072 302.406 215.074 302.409 215.076 302.412L215.077 302.41C216.613 303.985 219.218 302.717 219.315 300.585C216.32 293.001 223.085 292.091 228.289 289.911C241.24 285.255 254.425 284.609 267.819 286.05C268.827 287.237 270.356 288.272 271.972 288.814C280.927 290.302 276.208 296.951 281.869 297.918C280.829 321.094 308.943 333.744 325.233 318.509C331.737 312.145 333.288 302.717 334.796 294.219C335.593 294.04 336.1 293.604 336.396 293.026C338.314 291.11 339.518 289.34 343.31 288.814C347.102 288.288 350.021 289.344 350.416 289.667C350.516 289.868 350.622 290.069 350.747 290.27C350.92 290.57 351.156 290.809 351.424 290.998C347.679 314.076 365.581 328.672 383.653 316.702C391.506 309.309 393.165 297.99 393.493 287.888C394.557 287.245 395.231 285.999 394.863 284.433C394.355 282.273 395.546 280.404 397.443 279.465C399.907 278.246 399.471 273.794 396.641 273.325ZM318.987 284.274C316.743 283.78 315.785 287.241 318.036 287.736C319.629 288.087 320.98 288.891 321.892 290.254L321.988 290.402C323.213 292.352 326.309 290.552 325.076 288.589C323.689 286.381 321.533 284.834 318.987 284.274ZM384.687 282.127C383.896 281.57 382.699 281.984 382.24 282.772C381.735 283.639 382.066 284.605 382.807 285.172L382.882 285.228C383.562 285.707 384.223 286.566 384.306 287.446L384.314 287.556C384.403 289.86 387.979 289.871 387.89 287.556C387.803 285.292 386.493 283.4 384.687 282.127Z" fill="black"/>
<path d="M367.171 115.684C370.369 120.285 372.624 126.047 371.656 131.243C370.716 136.452 366.553 141.094 361.658 144.914C356.762 148.735 351.129 151.665 346.2 150.811C341.282 149.928 337.064 145.194 332.889 140.898C328.727 136.575 324.581 132.68 323.086 127.753C321.619 122.837 322.815 116.862 325.772 111.749C328.712 106.597 333.412 102.306 338.686 101.169C343.988 100.042 349.863 102.068 354.846 104.822C359.856 107.588 363.974 111.083 367.171 115.684Z" fill="#9FD8E5"/>
<path d="M375.115 31.9444C380.098 39.1361 383.606 48.1459 382.086 56.2776C380.609 64.4273 374.103 71.6988 366.455 77.6844C358.807 83.67 350.01 88.2652 342.318 86.937C334.645 85.5655 328.069 78.1664 321.562 71.4545C315.072 64.6994 308.609 58.6136 306.285 50.9078C304.005 43.2201 305.883 33.8694 310.507 25.8647C315.105 17.7988 322.45 11.079 330.683 9.28895C338.96 7.51702 348.126 10.675 355.897 14.9749C363.712 19.2928 370.133 24.7527 375.115 31.9444Z" fill="#9093D1"/>
<path d="M421.076 123.141C422.675 125.44 423.802 128.321 423.318 130.919C422.848 133.524 420.766 135.845 418.319 137.756C415.871 139.665 413.054 141.131 410.59 140.703C408.131 140.263 406.022 137.895 403.935 135.748C401.853 133.586 399.78 131.638 399.033 129.175C398.3 126.717 398.897 123.729 400.376 121.173C401.846 118.597 404.196 116.452 406.833 115.883C409.484 115.32 412.421 116.332 414.912 117.71C417.418 119.092 419.476 120.84 421.076 123.141Z" fill="#9093D1"/>
<path d="M452.34 16.4915C454.918 20.1999 456.736 24.8441 455.955 29.0328C455.197 33.2308 451.842 36.9733 447.895 40.0526C443.95 43.1318 439.409 45.494 435.437 44.8049C431.472 44.0937 428.073 40.2774 424.707 36.8153C421.352 33.331 418.011 30.1915 416.806 26.2199C415.623 22.2576 416.588 17.441 418.97 13.3197C421.341 9.16676 425.13 5.709 429.38 4.79179C433.653 3.88391 438.389 5.51657 442.405 7.73672C446.444 9.9662 449.763 12.7831 452.34 16.4915Z" fill="#9093D1"/>
<path d="M436.231 68.1642C439.429 72.765 441.684 78.5268 440.716 83.7234C439.776 88.9317 435.613 93.5748 430.717 97.395C425.822 101.215 420.189 104.146 415.26 103.291C410.342 102.409 406.123 97.674 401.949 93.3788C397.786 89.056 393.64 85.1609 392.146 80.2336C390.679 75.3178 391.875 69.3423 394.831 64.2291C397.771 59.0769 402.473 54.787 407.746 53.6491C413.048 52.5228 418.923 54.5483 423.906 57.3026C428.916 60.0686 433.033 63.5636 436.231 68.1642Z" fill="#F7859C"/>
<path d="M518.765 116.821C523.748 124.012 527.256 133.023 525.736 141.155C524.259 149.303 517.753 156.575 510.105 162.561C502.457 168.546 493.66 173.141 485.968 171.813C478.295 170.442 471.719 163.043 465.212 156.331C458.723 149.576 452.259 143.49 449.935 135.784C447.656 128.097 449.533 118.745 454.157 110.741C458.755 102.675 466.1 95.9554 474.333 94.1655C482.61 92.3936 491.777 95.5515 499.548 99.8514C507.363 104.169 513.783 109.629 518.765 116.821Z" fill="#FFDBB4"/>
</svg>
